<?xml version="1.0" encoding="utf-8" standalone="no"?>
<!DOCTYPE svg PUBLIC "-//W3C//DTD SVG 1.1//EN"
  "http://www.w3.org/Graphics/SVG/1.1/DTD/svg11.dtd">
<svg xmlns:xlink="http://www.w3.org/1999/xlink" width="460.8pt" height="345.6pt" viewBox="0 0 460.8 345.6" xmlns="http://www.w3.org/2000/svg" version="1.1">
 <metadata>
  <rdf:RDF xmlns:dc="http://purl.org/dc/elements/1.1/" xmlns:cc="http://creativecommons.org/ns#" xmlns:rdf="http://www.w3.org/1999/02/22-rdf-syntax-ns#">
   <cc:Work>
    <dc:type rdf:resource="http://purl.org/dc/dcmitype/StillImage"/>
    <dc:date>2023-07-31T22:52:25.301578</dc:date>
    <dc:format>image/svg+xml</dc:format>
    <dc:creator>
     <cc:Agent>
      <dc:title>Matplotlib v3.7.1, https://matplotlib.org/</dc:title>
     </cc:Agent>
    </dc:creator>
   </cc:Work>
  </rdf:RDF>
 </metadata>
 <defs>
  <style type="text/css">*{stroke-linejoin: round; stroke-linecap: butt}</style>
 </defs>
 <g id="figure_1">
  <g id="patch_1">
   <path d="M 0 345.6 
L 460.8 345.6 
L 460.8 0 
L 0 0 
z
" style="fill: #ffffff"/>
  </g>
  <g id="axes_1">
   <g id="patch_2">
    <path d="M 57.6 276.48 
L 414.72 276.48 
L 414.72 41.472 
L 57.6 41.472 
z
" style="fill: #ffffff"/>
   </g>
   <g id="matplotlib.axis_1">
    <g id="xtick_1">
     <g id="line2d_1">
      <defs>
       <path id="md7dfdd0fd3" d="M 0 0 
L 0 3.5 
" style="stroke: #000000; stroke-width: 0.8"/>
      </defs>
      <g>
       <use xlink:href="#md7dfdd0fd3" x="57.6" y="276.48" style="stroke: #000000; stroke-width: 0.8"/>
      </g>
     </g>
     <g id="text_1">
      <!-- 2007-01 -->
      <g transform="translate(20.375179 310.951846) rotate(-30) scale(0.1 -0.1)">
       <defs>
        <path id="DejaVuSans-32" d="M 1228 531 
L 3431 531 
L 3431 0 
L 469 0 
L 469 531 
Q 828 903 1448 1529 
Q 2069 2156 2228 2338 
Q 2531 2678 2651 2914 
Q 2772 3150 2772 3378 
Q 2772 3750 2511 3984 
Q 2250 4219 1831 4219 
Q 1534 4219 1204 4116 
Q 875 4013 500 3803 
L 500 4441 
Q 881 4594 1212 4672 
Q 1544 4750 1819 4750 
Q 2544 4750 2975 4387 
Q 3406 4025 3406 3419 
Q 3406 3131 3298 2873 
Q 3191 2616 2906 2266 
Q 2828 2175 2409 1742 
Q 1991 1309 1228 531 
z
" transform="scale(0.015625)"/>
        <path id="DejaVuSans-30" d="M 2034 4250 
Q 1547 4250 1301 3770 
Q 1056 3291 1056 2328 
Q 1056 1369 1301 889 
Q 1547 409 2034 409 
Q 2525 409 2770 889 
Q 3016 1369 3016 2328 
Q 3016 3291 2770 3770 
Q 2525 4250 2034 4250 
z
M 2034 4750 
Q 2819 4750 3233 4129 
Q 3647 3509 3647 2328 
Q 3647 1150 3233 529 
Q 2819 -91 2034 -91 
Q 1250 -91 836 529 
Q 422 1150 422 2328 
Q 422 3509 836 4129 
Q 1250 4750 2034 4750 
z
" transform="scale(0.015625)"/>
        <path id="DejaVuSans-37" d="M 525 4666 
L 3525 4666 
L 3525 4397 
L 1831 0 
L 1172 0 
L 2766 4134 
L 525 4134 
L 525 4666 
z
" transform="scale(0.015625)"/>
        <path id="DejaVuSans-2d" d="M 313 2009 
L 1997 2009 
L 1997 1497 
L 313 1497 
L 313 2009 
z
" transform="scale(0.015625)"/>
        <path id="DejaVuSans-31" d="M 794 531 
L 1825 531 
L 1825 4091 
L 703 3866 
L 703 4441 
L 1819 4666 
L 2450 4666 
L 2450 531 
L 3481 531 
L 3481 0 
L 794 0 
L 794 531 
z
" transform="scale(0.015625)"/>
       </defs>
       <use xlink:href="#DejaVuSans-32"/>
       <use xlink:href="#DejaVuSans-30" x="63.623047"/>
       <use xlink:href="#DejaVuSans-30" x="127.246094"/>
       <use xlink:href="#DejaVuSans-37" x="190.869141"/>
       <use xlink:href="#DejaVuSans-2d" x="254.492188"/>
       <use xlink:href="#DejaVuSans-30" x="290.576172"/>
       <use xlink:href="#DejaVuSans-31" x="354.199219"/>
      </g>
     </g>
    </g>
    <g id="xtick_2">
     <g id="line2d_2">
      <g>
       <use xlink:href="#md7dfdd0fd3" x="101.842793" y="276.48" style="stroke: #000000; stroke-width: 0.8"/>
      </g>
     </g>
     <g id="text_2">
      <!-- 2007-07 -->
      <g transform="translate(64.617972 310.951846) rotate(-30) scale(0.1 -0.1)">
       <use xlink:href="#DejaVuSans-32"/>
       <use xlink:href="#DejaVuSans-30" x="63.623047"/>
       <use xlink:href="#DejaVuSans-30" x="127.246094"/>
       <use xlink:href="#DejaVuSans-37" x="190.869141"/>
       <use xlink:href="#DejaVuSans-2d" x="254.492188"/>
       <use xlink:href="#DejaVuSans-30" x="290.576172"/>
       <use xlink:href="#DejaVuSans-37" x="354.199219"/>
      </g>
     </g>
    </g>
    <g id="xtick_3">
     <g id="line2d_3">
      <g>
       <use xlink:href="#md7dfdd0fd3" x="146.818891" y="276.48" style="stroke: #000000; stroke-width: 0.8"/>
      </g>
     </g>
     <g id="text_3">
      <!-- 2008-01 -->
      <g transform="translate(109.59407 310.951846) rotate(-30) scale(0.1 -0.1)">
       <defs>
        <path id="DejaVuSans-38" d="M 2034 2216 
Q 1584 2216 1326 1975 
Q 1069 1734 1069 1313 
Q 1069 891 1326 650 
Q 1584 409 2034 409 
Q 2484 409 2743 651 
Q 3003 894 3003 1313 
Q 3003 1734 2745 1975 
Q 2488 2216 2034 2216 
z
M 1403 2484 
Q 997 2584 770 2862 
Q 544 3141 544 3541 
Q 544 4100 942 4425 
Q 1341 4750 2034 4750 
Q 2731 4750 3128 4425 
Q 3525 4100 3525 3541 
Q 3525 3141 3298 2862 
Q 3072 2584 2669 2484 
Q 3125 2378 3379 2068 
Q 3634 1759 3634 1313 
Q 3634 634 3220 271 
Q 2806 -91 2034 -91 
Q 1263 -91 848 271 
Q 434 634 434 1313 
Q 434 1759 690 2068 
Q 947 2378 1403 2484 
z
M 1172 3481 
Q 1172 3119 1398 2916 
Q 1625 2713 2034 2713 
Q 2441 2713 2670 2916 
Q 2900 3119 2900 3481 
Q 2900 3844 2670 4047 
Q 2441 4250 2034 4250 
Q 1625 4250 1398 4047 
Q 1172 3844 1172 3481 
z
" transform="scale(0.015625)"/>
       </defs>
       <use xlink:href="#DejaVuSans-32"/>
       <use xlink:href="#DejaVuSans-30" x="63.623047"/>
       <use xlink:href="#DejaVuSans-30" x="127.246094"/>
       <use xlink:href="#DejaVuSans-38" x="190.869141"/>
       <use xlink:href="#DejaVuSans-2d" x="254.492188"/>
       <use xlink:href="#DejaVuSans-30" x="290.576172"/>
       <use xlink:href="#DejaVuSans-31" x="354.199219"/>
      </g>
     </g>
    </g>
    <g id="xtick_4">
     <g id="line2d_4">
      <g>
       <use xlink:href="#md7dfdd0fd3" x="191.306119" y="276.48" style="stroke: #000000; stroke-width: 0.8"/>
      </g>
     </g>
     <g id="text_4">
      <!-- 2008-07 -->
      <g transform="translate(154.081298 310.951846) rotate(-30) scale(0.1 -0.1)">
       <use xlink:href="#DejaVuSans-32"/>
       <use xlink:href="#DejaVuSans-30" x="63.623047"/>
       <use xlink:href="#DejaVuSans-30" x="127.246094"/>
       <use xlink:href="#DejaVuSans-38" x="190.869141"/>
       <use xlink:href="#DejaVuSans-2d" x="254.492188"/>
       <use xlink:href="#DejaVuSans-30" x="290.576172"/>
       <use xlink:href="#DejaVuSans-37" x="354.199219"/>
      </g>
     </g>
    </g>
    <g id="xtick_5">
     <g id="line2d_5">
      <g>
       <use xlink:href="#md7dfdd0fd3" x="236.282218" y="276.48" style="stroke: #000000; stroke-width: 0.8"/>
      </g>
     </g>
     <g id="text_5">
      <!-- 2009-01 -->
      <g transform="translate(199.057397 310.951846) rotate(-30) scale(0.1 -0.1)">
       <defs>
        <path id="DejaVuSans-39" d="M 703 97 
L 703 672 
Q 941 559 1184 500 
Q 1428 441 1663 441 
Q 2288 441 2617 861 
Q 2947 1281 2994 2138 
Q 2813 1869 2534 1725 
Q 2256 1581 1919 1581 
Q 1219 1581 811 2004 
Q 403 2428 403 3163 
Q 403 3881 828 4315 
Q 1253 4750 1959 4750 
Q 2769 4750 3195 4129 
Q 3622 3509 3622 2328 
Q 3622 1225 3098 567 
Q 2575 -91 1691 -91 
Q 1453 -91 1209 -44 
Q 966 3 703 97 
z
M 1959 2075 
Q 2384 2075 2632 2365 
Q 2881 2656 2881 3163 
Q 2881 3666 2632 3958 
Q 2384 4250 1959 4250 
Q 1534 4250 1286 3958 
Q 1038 3666 1038 3163 
Q 1038 2656 1286 2365 
Q 1534 2075 1959 2075 
z
" transform="scale(0.015625)"/>
       </defs>
       <use xlink:href="#DejaVuSans-32"/>
       <use xlink:href="#DejaVuSans-30" x="63.623047"/>
       <use xlink:href="#DejaVuSans-30" x="127.246094"/>
       <use xlink:href="#DejaVuSans-39" x="190.869141"/>
       <use xlink:href="#DejaVuSans-2d" x="254.492188"/>
       <use xlink:href="#DejaVuSans-30" x="290.576172"/>
       <use xlink:href="#DejaVuSans-31" x="354.199219"/>
      </g>
     </g>
    </g>
    <g id="xtick_6">
     <g id="line2d_6">
      <g>
       <use xlink:href="#md7dfdd0fd3" x="280.52501" y="276.48" style="stroke: #000000; stroke-width: 0.8"/>
      </g>
     </g>
     <g id="text_6">
      <!-- 2009-07 -->
      <g transform="translate(243.300189 310.951846) rotate(-30) scale(0.1 -0.1)">
       <use xlink:href="#DejaVuSans-32"/>
       <use xlink:href="#DejaVuSans-30" x="63.623047"/>
       <use xlink:href="#DejaVuSans-30" x="127.246094"/>
       <use xlink:href="#DejaVuSans-39" x="190.869141"/>
       <use xlink:href="#DejaVuSans-2d" x="254.492188"/>
       <use xlink:href="#DejaVuSans-30" x="290.576172"/>
       <use xlink:href="#DejaVuSans-37" x="354.199219"/>
      </g>
     </g>
    </g>
    <g id="xtick_7">
     <g id="line2d_7">
      <g>
       <use xlink:href="#md7dfdd0fd3" x="325.501109" y="276.48" style="stroke: #000000; stroke-width: 0.8"/>
      </g>
     </g>
     <g id="text_7">
      <!-- 2010-01 -->
      <g transform="translate(288.276288 310.951846) rotate(-30) scale(0.1 -0.1)">
       <use xlink:href="#DejaVuSans-32"/>
       <use xlink:href="#DejaVuSans-30" x="63.623047"/>
       <use xlink:href="#DejaVuSans-31" x="127.246094"/>
       <use xlink:href="#DejaVuSans-30" x="190.869141"/>
       <use xlink:href="#DejaVuSans-2d" x="254.492188"/>
       <use xlink:href="#DejaVuSans-30" x="290.576172"/>
       <use xlink:href="#DejaVuSans-31" x="354.199219"/>
      </g>
     </g>
    </g>
    <g id="xtick_8">
     <g id="line2d_8">
      <g>
       <use xlink:href="#md7dfdd0fd3" x="369.743901" y="276.48" style="stroke: #000000; stroke-width: 0.8"/>
      </g>
     </g>
     <g id="text_8">
      <!-- 2010-07 -->
      <g transform="translate(332.519081 310.951846) rotate(-30) scale(0.1 -0.1)">
       <use xlink:href="#DejaVuSans-32"/>
       <use xlink:href="#DejaVuSans-30" x="63.623047"/>
       <use xlink:href="#DejaVuSans-31" x="127.246094"/>
       <use xlink:href="#DejaVuSans-30" x="190.869141"/>
       <use xlink:href="#DejaVuSans-2d" x="254.492188"/>
       <use xlink:href="#DejaVuSans-30" x="290.576172"/>
       <use xlink:href="#DejaVuSans-37" x="354.199219"/>
      </g>
     </g>
    </g>
    <g id="xtick_9">
     <g id="line2d_9">
      <g>
       <use xlink:href="#md7dfdd0fd3" x="414.72" y="276.48" style="stroke: #000000; stroke-width: 0.8"/>
      </g>
     </g>
     <g id="text_9">
      <!-- 2011-01 -->
      <g transform="translate(377.495179 310.951846) rotate(-30) scale(0.1 -0.1)">
       <use xlink:href="#DejaVuSans-32"/>
       <use xlink:href="#DejaVuSans-30" x="63.623047"/>
       <use xlink:href="#DejaVuSans-31" x="127.246094"/>
       <use xlink:href="#DejaVuSans-31" x="190.869141"/>
       <use xlink:href="#DejaVuSans-2d" x="254.492188"/>
       <use xlink:href="#DejaVuSans-30" x="290.576172"/>
       <use xlink:href="#DejaVuSans-31" x="354.199219"/>
      </g>
     </g>
    </g>
    <g id="text_10">
     <!-- Date -->
     <g transform="translate(224.209219 324.351346) scale(0.1 -0.1)">
      <defs>
       <path id="DejaVuSans-44" d="M 1259 4147 
L 1259 519 
L 2022 519 
Q 2988 519 3436 956 
Q 3884 1394 3884 2338 
Q 3884 3275 3436 3711 
Q 2988 4147 2022 4147 
L 1259 4147 
z
M 628 4666 
L 1925 4666 
Q 3281 4666 3915 4102 
Q 4550 3538 4550 2338 
Q 4550 1131 3912 565 
Q 3275 0 1925 0 
L 628 0 
L 628 4666 
z
" transform="scale(0.015625)"/>
       <path id="DejaVuSans-61" d="M 2194 1759 
Q 1497 1759 1228 1600 
Q 959 1441 959 1056 
Q 959 750 1161 570 
Q 1363 391 1709 391 
Q 2188 391 2477 730 
Q 2766 1069 2766 1631 
L 2766 1759 
L 2194 1759 
z
M 3341 1997 
L 3341 0 
L 2766 0 
L 2766 531 
Q 2569 213 2275 61 
Q 1981 -91 1556 -91 
Q 1019 -91 701 211 
Q 384 513 384 1019 
Q 384 1609 779 1909 
Q 1175 2209 1959 2209 
L 2766 2209 
L 2766 2266 
Q 2766 2663 2505 2880 
Q 2244 3097 1772 3097 
Q 1472 3097 1187 3025 
Q 903 2953 641 2809 
L 641 3341 
Q 956 3463 1253 3523 
Q 1550 3584 1831 3584 
Q 2591 3584 2966 3190 
Q 3341 2797 3341 1997 
z
" transform="scale(0.015625)"/>
       <path id="DejaVuSans-74" d="M 1172 4494 
L 1172 3500 
L 2356 3500 
L 2356 3053 
L 1172 3053 
L 1172 1153 
Q 1172 725 1289 603 
Q 1406 481 1766 481 
L 2356 481 
L 2356 0 
L 1766 0 
Q 1100 0 847 248 
Q 594 497 594 1153 
L 594 3053 
L 172 3053 
L 172 3500 
L 594 3500 
L 594 4494 
L 1172 4494 
z
" transform="scale(0.015625)"/>
       <path id="DejaVuSans-65" d="M 3597 1894 
L 3597 1613 
L 953 1613 
Q 991 1019 1311 708 
Q 1631 397 2203 397 
Q 2534 397 2845 478 
Q 3156 559 3463 722 
L 3463 178 
Q 3153 47 2828 -22 
Q 2503 -91 2169 -91 
Q 1331 -91 842 396 
Q 353 884 353 1716 
Q 353 2575 817 3079 
Q 1281 3584 2069 3584 
Q 2775 3584 3186 3129 
Q 3597 2675 3597 1894 
z
M 3022 2063 
Q 3016 2534 2758 2815 
Q 2500 3097 2075 3097 
Q 1594 3097 1305 2825 
Q 1016 2553 972 2059 
L 3022 2063 
z
" transform="scale(0.015625)"/>
      </defs>
      <use xlink:href="#DejaVuSans-44"/>
      <use xlink:href="#DejaVuSans-61" x="77.001953"/>
      <use xlink:href="#DejaVuSans-74" x="138.28125"/>
      <use xlink:href="#DejaVuSans-65" x="177.490234"/>
     </g>
    </g>
   </g>
   <g id="matplotlib.axis_2">
    <g id="ytick_1">
     <g id="line2d_10">
      <defs>
       <path id="m389d9eebae" d="M 0 0 
L -3.5 0 
" style="stroke: #000000; stroke-width: 0.8"/>
      </defs>
      <g>
       <use xlink:href="#m389d9eebae" x="57.6" y="276.48" style="stroke: #000000; stroke-width: 0.8"/>
      </g>
     </g>
     <g id="text_11">
      <!-- 600 -->
      <g transform="translate(31.5125 280.279219) scale(0.1 -0.1)">
       <defs>
        <path id="DejaVuSans-36" d="M 2113 2584 
Q 1688 2584 1439 2293 
Q 1191 2003 1191 1497 
Q 1191 994 1439 701 
Q 1688 409 2113 409 
Q 2538 409 2786 701 
Q 3034 994 3034 1497 
Q 3034 2003 2786 2293 
Q 2538 2584 2113 2584 
z
M 3366 4563 
L 3366 3988 
Q 3128 4100 2886 4159 
Q 2644 4219 2406 4219 
Q 1781 4219 1451 3797 
Q 1122 3375 1075 2522 
Q 1259 2794 1537 2939 
Q 1816 3084 2150 3084 
Q 2853 3084 3261 2657 
Q 3669 2231 3669 1497 
Q 3669 778 3244 343 
Q 2819 -91 2113 -91 
Q 1303 -91 875 529 
Q 447 1150 447 2328 
Q 447 3434 972 4092 
Q 1497 4750 2381 4750 
Q 2619 4750 2861 4703 
Q 3103 4656 3366 4563 
z
" transform="scale(0.015625)"/>
       </defs>
       <use xlink:href="#DejaVuSans-36"/>
       <use xlink:href="#DejaVuSans-30" x="63.623047"/>
       <use xlink:href="#DejaVuSans-30" x="127.246094"/>
      </g>
     </g>
    </g>
    <g id="ytick_2">
     <g id="line2d_11">
      <g>
       <use xlink:href="#m389d9eebae" x="57.6" y="237.312" style="stroke: #000000; stroke-width: 0.8"/>
      </g>
     </g>
     <g id="text_12">
      <!-- 800 -->
      <g transform="translate(31.5125 241.111219) scale(0.1 -0.1)">
       <use xlink:href="#DejaVuSans-38"/>
       <use xlink:href="#DejaVuSans-30" x="63.623047"/>
       <use xlink:href="#DejaVuSans-30" x="127.246094"/>
      </g>
     </g>
    </g>
    <g id="ytick_3">
     <g id="line2d_12">
      <g>
       <use xlink:href="#m389d9eebae" x="57.6" y="198.144" style="stroke: #000000; stroke-width: 0.8"/>
      </g>
     </g>
     <g id="text_13">
      <!-- 1000 -->
      <g transform="translate(25.15 201.943219) scale(0.1 -0.1)">
       <use xlink:href="#DejaVuSans-31"/>
       <use xlink:href="#DejaVuSans-30" x="63.623047"/>
       <use xlink:href="#DejaVuSans-30" x="127.246094"/>
       <use xlink:href="#DejaVuSans-30" x="190.869141"/>
      </g>
     </g>
    </g>
    <g id="ytick_4">
     <g id="line2d_13">
      <g>
       <use xlink:href="#m389d9eebae" x="57.6" y="158.976" style="stroke: #000000; stroke-width: 0.8"/>
      </g>
     </g>
     <g id="text_14">
      <!-- 1200 -->
      <g transform="translate(25.15 162.775219) scale(0.1 -0.1)">
       <use xlink:href="#DejaVuSans-31"/>
       <use xlink:href="#DejaVuSans-32" x="63.623047"/>
       <use xlink:href="#DejaVuSans-30" x="127.246094"/>
       <use xlink:href="#DejaVuSans-30" x="190.869141"/>
      </g>
     </g>
    </g>
    <g id="ytick_5">
     <g id="line2d_14">
      <g>
       <use xlink:href="#m389d9eebae" x="57.6" y="119.808" style="stroke: #000000; stroke-width: 0.8"/>
      </g>
     </g>
     <g id="text_15">
      <!-- 1400 -->
      <g transform="translate(25.15 123.607219) scale(0.1 -0.1)">
       <defs>
        <path id="DejaVuSans-34" d="M 2419 4116 
L 825 1625 
L 2419 1625 
L 2419 4116 
z
M 2253 4666 
L 3047 4666 
L 3047 1625 
L 3713 1625 
L 3713 1100 
L 3047 1100 
L 3047 0 
L 2419 0 
L 2419 1100 
L 313 1100 
L 313 1709 
L 2253 4666 
z
" transform="scale(0.015625)"/>
       </defs>
       <use xlink:href="#DejaVuSans-31"/>
       <use xlink:href="#DejaVuSans-34" x="63.623047"/>
       <use xlink:href="#DejaVuSans-30" x="127.246094"/>
       <use xlink:href="#DejaVuSans-30" x="190.869141"/>
      </g>
     </g>
    </g>
    <g id="ytick_6">
     <g id="line2d_15">
      <g>
       <use xlink:href="#m389d9eebae" x="57.6" y="80.64" style="stroke: #000000; stroke-width: 0.8"/>
      </g>
     </g>
     <g id="text_16">
      <!-- 1600 -->
      <g transform="translate(25.15 84.439219) scale(0.1 -0.1)">
       <use xlink:href="#DejaVuSans-31"/>
       <use xlink:href="#DejaVuSans-36" x="63.623047"/>
       <use xlink:href="#DejaVuSans-30" x="127.246094"/>
       <use xlink:href="#DejaVuSans-30" x="190.869141"/>
      </g>
     </g>
    </g>
    <g id="ytick_7">
     <g id="line2d_16">
      <g>
       <use xlink:href="#m389d9eebae" x="57.6" y="41.472" style="stroke: #000000; stroke-width: 0.8"/>
      </g>
     </g>
     <g id="text_17">
      <!-- 1800 -->
      <g transform="translate(25.15 45.271219) scale(0.1 -0.1)">
       <use xlink:href="#DejaVuSans-31"/>
       <use xlink:href="#DejaVuSans-38" x="63.623047"/>
       <use xlink:href="#DejaVuSans-30" x="127.246094"/>
       <use xlink:href="#DejaVuSans-30" x="190.869141"/>
      </g>
     </g>
    </g>
   </g>
   <g id="line2d_17">
    <path d="M 56.866694 116.224128 
L 58.088871 116.557056 
L 58.333306 116.216294 
L 58.577741 117.906394 
L 59.311047 117.293414 
L 59.555483 117.436378 
L 59.799918 116.899776 
L 60.288789 113.789837 
L 61.26653 113.560704 
L 61.510965 113.811379 
L 61.7554 114.643699 
L 61.999836 113.83488 
L 62.733142 115.313472 
L 62.977577 114.326438 
L 63.222012 111.948941 
L 63.466448 115.127424 
L 63.710883 115.464269 
L 64.444189 115.769779 
L 65.177495 110.81111 
L 65.42193 110.331302 
L 66.155236 110.605478 
L 66.399671 110.40768 
L 66.644107 110.012083 
L 66.888542 110.34697 
L 67.132977 112.35433 
L 67.866283 113.272819 
L 68.355154 108.978048 
L 68.599589 108.68233 
L 68.844025 108.931046 
L 69.821766 108.120269 
L 70.310637 108.766541 
L 70.555072 109.78295 
L 71.288378 110.139379 
L 71.532813 119.996006 
L 71.777248 118.472371 
L 72.021684 119.187187 
L 72.266119 122.320627 
L 72.999425 124.876339 
L 73.24386 120.706906 
L 73.488296 121.380595 
L 73.732731 119.437862 
L 73.977166 119.251814 
L 74.710472 118.515456 
L 74.954908 124.126272 
L 75.443778 121.319885 
L 75.688214 122.363712 
L 76.42152 119.40457 
L 76.665955 117.66551 
L 76.91039 112.945766 
L 77.154825 113.043686 
L 77.399261 112.736218 
L 78.132567 112.464 
L 78.621437 116.433677 
L 78.865873 115.395725 
L 79.110308 115.722778 
L 79.843614 115.000128 
L 80.088049 112.411123 
L 80.332485 112.097779 
L 80.57692 111.238042 
L 81.554661 111.071578 
L 81.799097 110.331302 
L 82.043532 112.195699 
L 82.532402 109.457856 
L 83.510144 105.809357 
L 83.754579 105.6096 
L 83.999014 105.956237 
L 84.24345 103.288896 
L 85.221191 104.060506 
L 85.465626 101.120947 
L 85.710062 101.35008 
L 85.954497 101.385331 
L 86.687803 103.676659 
L 86.932238 102.907008 
L 87.421109 99.755942 
L 87.665544 99.123379 
L 88.39885 98.367437 
L 88.643285 98.712115 
L 88.887721 97.760333 
L 89.132156 101.894515 
L 89.376591 99.078336 
L 90.109897 99.607104 
L 90.354333 99.99095 
L 90.598768 97.454822 
L 90.843203 97.72704 
L 91.087639 95.76864 
L 91.820945 95.308416 
L 92.06538 95.500339 
L 92.309815 95.860685 
L 92.554251 98.753242 
L 92.798686 97.143437 
L 93.776427 96.677338 
L 94.020862 94.303757 
L 94.265298 94.227379 
L 94.509733 93.107174 
L 95.243039 92.550989 
L 95.487474 94.162752 
L 95.73191 96.820301 
L 95.976345 102.041395 
L 96.22078 98.721907 
L 96.954086 98.437939 
L 97.198522 101.59488 
L 97.442957 97.155187 
L 97.931828 93.778906 
L 98.665133 94.143168 
L 98.909569 93.624192 
L 99.154004 97.709414 
L 99.398439 95.87831 
L 99.642875 99.72265 
L 100.376181 100.666598 
L 100.620616 101.616422 
L 100.865051 98.982374 
L 101.109487 99.105754 
L 101.353922 99.567936 
L 102.331663 95.353459 
L 102.820534 95.249664 
L 103.064969 94.26263 
L 103.798275 93.986496 
L 104.04271 98.242099 
L 104.287146 96.550042 
L 104.531581 90.882432 
L 104.776016 89.9424 
L 105.509322 90.526003 
L 105.753758 90.555379 
L 105.998193 91.182067 
L 106.242628 89.828813 
L 106.487064 93.545856 
L 107.22037 92.082931 
L 107.464805 98.061926 
L 107.70924 96.681254 
L 108.198111 108.263232 
L 108.931417 105.333466 
L 109.175852 108.983923 
L 109.664723 105.668352 
L 109.909158 113.33353 
L 110.886899 104.785114 
L 111.131335 100.715558 
L 111.37577 109.410854 
L 111.620205 109.303142 
L 112.353511 109.444147 
L 112.842382 118.495872 
L 113.086817 117.600883 
L 113.331253 110.81111 
L 114.064559 110.887488 
L 114.308994 110.580019 
L 114.553429 107.260531 
L 114.797864 107.568 
L 115.0423 104.264179 
L 115.775606 106.727846 
L 116.020041 113.470618 
L 116.264476 107.321242 
L 116.508912 108.519782 
L 116.753347 105.317798 
L 117.731088 102.295987 
L 117.975524 105.650726 
L 118.219959 104.424768 
L 118.464394 109.320768 
L 119.1977 109.683072 
L 119.442136 105.807398 
L 119.686571 105.79369 
L 119.931006 103.367232 
L 120.175441 103.30848 
L 120.908747 104.796864 
L 121.153183 96.350285 
L 121.397618 94.538765 
L 121.642053 96.552 
L 121.886489 95.18112 
L 122.619795 96.751757 
L 122.86423 96.853594 
L 123.353101 94.078541 
L 123.597536 94.98528 
L 124.330842 91.011686 
L 124.575277 91.091981 
L 124.819713 92.470694 
L 125.064148 91.834214 
L 125.308583 88.945574 
L 126.041889 89.926733 
L 126.286324 87.465024 
L 126.53076 87.989875 
L 126.775195 89.568346 
L 127.01963 88.121088 
L 127.752936 90.684634 
L 127.997372 92.678285 
L 128.241807 92.147558 
L 128.486242 92.374733 
L 128.730678 100.100621 
L 129.463984 98.984333 
L 129.708419 96.387494 
L 129.952854 97.114061 
L 130.19729 97.403904 
L 130.441725 93.314765 
L 131.175031 92.198477 
L 131.419466 94.149043 
L 131.663901 90.553421 
L 131.908337 98.57111 
L 132.152772 98.334144 
L 132.886078 99.799027 
L 133.130513 96.254323 
L 133.374949 104.998579 
L 133.619384 105.165043 
L 133.863819 109.291392 
L 134.597125 112.134989 
L 134.841561 103.935168 
L 135.085996 105.985613 
L 135.330431 109.790784 
L 135.574867 108.304358 
L 136.308172 113.292403 
L 136.552608 112.033152 
L 136.797043 116.523763 
L 137.285914 111.837312 
L 138.01922 118.394035 
L 138.263655 114.279437 
L 138.50809 106.291123 
L 138.752526 106.154035 
L 138.996961 103.917542 
L 139.730267 105.625267 
L 139.974702 107.511206 
L 140.463573 98.786534 
L 140.708008 99.311386 
L 141.441314 97.098394 
L 141.685749 104.601024 
L 141.930185 102.850214 
L 142.17462 102.493786 
L 142.419055 106.500672 
L 143.152361 110.818944 
L 143.396797 109.040717 
L 143.641232 109.42848 
L 143.885667 108.034099 
L 144.130103 103.267354 
L 144.863409 100.919232 
L 145.352279 100.682266 
L 145.596715 104.871283 
L 145.84115 104.436518 
L 146.574456 106.420378 
L 147.063326 110.572186 
L 147.307762 110.572186 
L 147.552197 117.530381 
L 148.285503 116.639309 
L 148.529938 121.72919 
L 149.018809 115.826573 
L 149.263244 119.608243 
L 149.99655 116.6256 
L 150.240986 123.538752 
L 150.485421 125.056512 
L 150.729856 132.88032 
L 150.974292 134.45879 
L 151.952033 137.33568 
L 152.196468 131.832576 
L 152.440903 129.194611 
L 152.685339 133.397338 
L 153.66308 127.191168 
L 153.907515 128.46217 
L 154.396386 120.704947 
L 155.129692 123.564211 
L 155.374127 132.216422 
L 155.618563 134.212032 
L 155.862998 132.163546 
L 156.107433 133.264166 
L 156.840739 131.728781 
L 157.085175 129.823258 
L 157.32961 126.229594 
L 157.574045 129.823258 
L 157.81848 129.601958 
L 158.796222 129.838925 
L 159.040657 127.635725 
L 159.285092 131.062925 
L 159.529528 128.990938 
L 160.262834 125.330688 
L 160.507269 123.472166 
L 160.751704 123.720883 
L 160.99614 126.137549 
L 161.240575 133.393421 
L 161.973881 133.254374 
L 162.218316 134.15328 
L 162.462752 132.792192 
L 162.707187 138.542054 
L 162.951622 140.690419 
L 163.684928 144.607219 
L 163.929363 135.347904 
L 164.173799 137.674483 
L 164.418234 136.360397 
L 164.662669 141.714662 
L 165.395975 143.974656 
L 165.640411 133.371878 
L 165.884846 139.701427 
L 166.129281 133.612762 
L 167.351458 129.014438 
L 168.084764 136.411315 
L 168.81807 134.946432 
L 169.062505 125.647949 
L 169.30694 126.166925 
L 169.795811 125.604864 
L 170.529117 125.185766 
L 170.773552 126.556646 
L 171.017988 128.720678 
L 171.262423 127.533888 
L 171.506858 132.962573 
L 172.240164 133.845811 
L 172.4846 132.649229 
L 172.729035 126.719194 
L 172.97347 126.55273 
L 173.217906 121.701773 
L 173.951211 122.124787 
L 174.195647 124.51991 
L 174.440082 123.738509 
L 174.928953 120.231014 
L 175.662259 120.518899 
L 176.151129 122.630054 
L 176.395565 117.978854 
L 176.64 117.085824 
L 177.373306 118.341158 
L 177.617741 116.231962 
L 177.862177 121.263091 
L 178.106612 120.262349 
L 178.351047 122.103245 
L 179.084353 119.106893 
L 179.328789 119.212646 
L 179.573224 118.112026 
L 179.817659 115.192051 
L 180.062094 114.843456 
L 180.7954 114.592781 
L 181.039836 117.183744 
L 181.284271 121.627354 
L 181.528706 120.914496 
L 181.773142 124.521869 
L 182.750883 122.677056 
L 183.484189 119.733581 
L 184.217495 122.614387 
L 184.46193 124.185024 
L 184.706366 124.273152 
L 184.950801 119.014848 
L 185.195236 127.508429 
L 185.928542 127.296922 
L 186.172977 127.94711 
L 186.417413 132.441638 
L 186.661848 131.583859 
L 186.906283 127.635725 
L 187.639589 127.614182 
L 188.12846 131.98729 
L 188.372895 131.004173 
L 188.617331 135.880589 
L 189.350637 135.86688 
L 189.595072 136.593446 
L 189.839507 135.089395 
L 190.083943 142.691904 
L 190.328378 143.626061 
L 191.061684 143.3088 
L 191.306119 142.347226 
L 191.550554 146.927923 
L 191.79499 146.657664 
L 192.772731 148.73161 
L 193.017166 144.542592 
L 193.261602 150.22391 
L 193.506037 148.520102 
L 193.750472 151.242278 
L 194.483778 153.433728 
L 194.728214 156.056026 
L 194.972649 150.092698 
L 195.217084 147.162931 
L 195.46152 147.092429 
L 196.194825 147.2256 
L 196.439261 143.89632 
L 196.683696 142.87991 
L 196.928131 148.686566 
L 197.172567 147.664282 
L 197.905873 152.244979 
L 198.394743 142.474522 
L 198.639179 145.780301 
L 198.883614 147.16489 
L 199.61692 149.377882 
L 199.861355 142.353101 
L 200.105791 141.50903 
L 200.350226 146.036851 
L 200.594661 140.112691 
L 201.327967 138.350131 
L 201.572402 141.430694 
L 201.816838 142.167053 
L 202.305708 139.744512 
L 203.039014 143.582976 
L 203.28345 145.91543 
L 203.527885 144.378086 
L 203.77232 143.755315 
L 204.016756 140.919552 
L 204.750062 145.886054 
L 204.994497 144.971482 
L 205.238932 142.983706 
L 205.483368 139.258829 
L 205.727803 142.754573 
L 206.705544 143.782733 
L 206.949979 144.291917 
L 207.194415 151.763213 
L 207.43885 150.69001 
L 208.172156 145.700006 
L 208.416591 154.175962 
L 208.661027 152.701286 
L 208.905462 149.370048 
L 209.149897 148.851072 
L 209.883203 160.405632 
L 210.127639 156.312576 
L 210.372074 167.516582 
L 210.860945 148.189133 
L 211.838686 161.282995 
L 212.083121 161.743219 
L 212.327556 157.178189 
L 212.571992 156.377203 
L 213.305298 177.302707 
L 213.549733 165.564058 
L 213.794168 166.60201 
L 214.038604 175.763405 
L 215.016345 187.002662 
L 215.26078 198.882317 
L 215.505216 201.09335 
L 215.749651 215.785267 
L 215.994086 217.880755 
L 216.727392 197.487936 
L 216.971828 198.533722 
L 217.216263 216.192614 
L 217.460698 208.635149 
L 217.705133 209.786688 
L 218.438439 201.003264 
L 218.682875 206.947008 
L 218.92731 218.358605 
L 219.171745 216.139738 
L 219.416181 222.277363 
L 220.149487 227.731507 
L 220.393922 209.794522 
L 220.638357 211.835174 
L 221.127228 204.264 
L 221.860534 204.743808 
L 222.104969 197.01792 
L 222.59384 216.772301 
L 222.838275 211.658918 
L 223.571581 213.965914 
L 223.816016 217.933632 
L 224.060452 227.069568 
L 224.304887 215.516966 
L 224.549322 222.958886 
L 225.282628 227.37312 
L 225.527064 225.733939 
L 226.015934 246.62615 
L 226.26037 237.306125 
L 226.993676 227.16553 
L 227.238111 226.072742 
L 227.482546 220.140749 
L 227.971417 218.464358 
L 228.704723 234.137434 
L 229.193593 223.458278 
L 229.438029 228.456115 
L 229.682464 222.414451 
L 230.41577 215.828352 
L 230.660205 219.946867 
L 230.904641 217.876838 
L 231.149076 222.900134 
L 231.393511 221.697677 
L 232.126817 223.883251 
L 232.371253 215.146829 
L 232.615688 216.862387 
L 232.860123 220.610765 
L 233.104559 220.101581 
L 233.837864 223.283981 
L 234.0823 224.942746 
L 234.326735 223.965504 
L 234.815606 223.054848 
L 235.548912 223.716787 
L 236.037782 217.09152 
L 236.526653 211.500288 
L 237.259959 212.352192 
L 237.504394 210.932352 
L 237.74883 216.425664 
L 237.993265 215.822477 
L 238.2377 219.617856 
L 238.971006 223.552282 
L 239.215441 223.252646 
L 239.459877 228.965299 
L 239.704312 228.745958 
L 239.948747 227.496499 
L 240.926489 236.289715 
L 241.170924 229.431398 
L 241.415359 231.9264 
L 241.659795 231.054912 
L 242.393101 230.150131 
L 242.637536 228.360154 
L 242.881971 222.802214 
L 243.370842 232.243661 
L 244.104148 232.32983 
L 244.348583 229.770202 
L 244.593018 231.000077 
L 244.837454 228.332736 
L 245.081889 223.877376 
L 245.815195 223.624742 
L 246.05963 231.992986 
L 246.304066 230.704358 
L 246.548501 230.42039 
L 246.792936 232.055654 
L 247.770678 239.432947 
L 248.015113 239.579827 
L 249.23729 248.410253 
L 249.481725 242.572262 
L 249.72616 244.185984 
L 249.970595 246.549773 
L 250.215031 250.023974 
L 250.948337 256.735411 
L 251.192772 257.614733 
L 251.437207 254.375539 
L 251.681643 260.313408 
L 251.926078 260.150861 
L 252.659384 261.492365 
L 252.903819 253.057536 
L 253.148255 252.712858 
L 253.39269 246.959078 
L 253.637125 245.821248 
L 254.370431 246.342182 
L 254.859302 238.418496 
L 255.103737 240.437606 
L 255.348172 243.473126 
L 256.081478 232.823347 
L 256.325914 236.113459 
L 256.570349 234.593741 
L 256.814784 230.876698 
L 257.05922 234.19031 
L 257.792526 239.754125 
L 258.281396 235.142093 
L 258.525832 230.579021 
L 258.770267 228.9888 
L 259.503573 230.363597 
L 259.748008 234.266688 
L 259.992444 232.384666 
L 260.236879 226.23529 
L 261.21462 225.810317 
L 261.459055 229.18464 
L 262.192361 223.681536 
L 262.925667 230.968742 
L 263.170103 227.504333 
L 263.414538 228.783168 
L 263.658973 227.143987 
L 263.903409 224.341517 
L 264.88115 226.509466 
L 265.125585 222.890342 
L 265.370021 223.05289 
L 265.614456 222.130483 
L 266.347762 216.310118 
L 266.592197 216.983808 
L 266.836632 213.903245 
L 267.081068 216.280742 
L 267.325503 212.003597 
L 268.058809 215.918438 
L 268.303244 216.092736 
L 268.54768 220.877107 
L 268.792115 219.085171 
L 269.03655 221.080781 
L 269.769856 215.826394 
L 270.014292 216.135821 
L 270.258727 217.048435 
L 270.503162 220.013453 
L 270.747598 220.27392 
L 271.725339 215.704973 
L 271.969774 219.08713 
L 272.458645 213.979622 
L 273.191951 209.332339 
L 273.436386 208.966118 
L 273.680821 211.508122 
L 273.925257 209.412634 
L 274.169692 209.876774 
L 274.902998 210.062822 
L 275.147433 209.418509 
L 275.391869 210.060864 
L 275.636304 208.936742 
L 275.880739 208.678234 
L 276.614045 213.082675 
L 276.85848 215.383795 
L 277.102916 215.630554 
L 277.347351 214.130419 
L 277.591786 213.570317 
L 278.325092 219.091046 
L 278.569528 218.687616 
L 278.813963 217.54391 
L 279.058398 213.760282 
L 279.302834 214.026624 
L 280.03614 212.395277 
L 280.280575 213.944371 
L 280.52501 213.159053 
L 280.769446 218.429107 
L 281.747187 217.978675 
L 281.991622 221.443085 
L 282.236057 221.73097 
L 282.480493 221.119949 
L 282.724928 221.815181 
L 283.702669 216.584294 
L 283.947105 211.327949 
L 284.19154 209.749478 
L 284.435975 209.819981 
L 285.413717 207.039053 
L 285.658152 207.138931 
L 285.902587 202.787366 
L 286.147023 202.205722 
L 286.880329 201.633869 
L 287.124764 202.135219 
L 287.369199 203.010624 
L 287.613634 200.73888 
L 287.85807 200.595917 
L 288.835811 197.037504 
L 289.080246 197.611315 
L 289.324682 198.715853 
L 289.569117 196.091597 
L 290.302423 196.753536 
L 290.546858 199.250496 
L 291.035729 195.650957 
L 292.01347 202.113677 
L 292.746776 196.700659 
L 292.991211 193.026701 
L 293.724517 193.136371 
L 293.968953 192.66048 
L 294.213388 192.636979 
L 294.457823 192.076877 
L 294.702259 192.478349 
L 295.435565 194.105779 
L 295.68 198.527846 
L 295.924435 199.17216 
L 296.168871 197.509478 
L 296.413306 194.932224 
L 297.391047 193.171622 
L 297.879918 189.499622 
L 298.124353 189.775757 
L 299.102094 187.836941 
L 299.34653 184.678042 
L 299.590965 185.318438 
L 299.8354 184.768128 
L 300.568706 185.480986 
L 300.813142 184.110106 
L 301.302012 188.199245 
L 301.546448 189.452621 
L 302.279754 185.809997 
L 302.768624 186.965453 
L 303.01306 192.298176 
L 303.257495 193.206874 
L 303.990801 190.220314 
L 304.235236 187.427635 
L 304.479671 186.867533 
L 304.968542 184.143398 
L 305.701848 183.22295 
L 305.946283 183.81047 
L 306.190719 180.122803 
L 306.435154 179.23369 
L 306.679589 180.972749 
L 307.412895 178.969306 
L 307.901766 182.202624 
L 308.146201 179.948506 
L 308.390637 182.555136 
L 309.368378 185.725786 
L 309.612813 189.795341 
L 309.857248 185.197018 
L 310.101684 191.05655 
L 311.32386 189.03744 
L 311.568296 185.095181 
L 311.812731 184.572288 
L 312.546037 179.915213 
L 312.790472 179.928922 
L 313.034908 178.851802 
L 313.279343 181.058918 
L 313.523778 179.836877 
L 314.257084 176.738688 
L 314.50152 176.538931 
L 314.745955 176.640768 
L 314.99039 179.558784 
L 315.234825 180.248141 
L 315.968131 177.337958 
L 316.212567 177.453504 
L 316.457002 176.478221 
L 316.945873 180.226598 
L 317.679179 179.415821 
L 317.923614 176.824858 
L 318.168049 176.750438 
L 318.412485 178.575667 
L 318.65692 177.388877 
L 319.390226 177.92352 
L 319.634661 180.13847 
L 319.879097 179.353152 
L 320.367967 177.304666 
L 321.101273 175.796698 
L 321.345708 177.006989 
L 321.590144 176.762189 
L 321.834579 179.327693 
L 322.079014 178.076275 
L 323.545626 173.374157 
L 324.523368 173.119565 
L 324.767803 173.428992 
L 325.012238 173.385907 
L 325.256674 175.602816 
L 326.47885 171.407923 
L 326.723285 171.286502 
L 327.212156 169.751117 
L 327.945462 169.359437 
L 328.189897 171.466675 
L 328.434333 169.614029 
L 328.678768 169.069594 
L 328.923203 171.503885 
L 329.900945 168.722957 
L 330.14538 171.110246 
L 330.634251 180.173722 
L 331.367556 179.190605 
L 331.611992 180.093427 
L 331.856427 179.0496 
L 332.345298 183.677299 
L 333.078604 180.67703 
L 333.323039 177.909811 
L 333.567474 179.092685 
L 333.81191 185.784538 
L 334.056345 185.18135 
L 334.789651 187.032038 
L 335.034086 184.333363 
L 335.278522 184.801421 
L 335.522957 182.776435 
L 335.767392 183.356122 
L 337.478439 176.764147 
L 338.211745 176.991322 
L 338.456181 179.617536 
L 338.700616 177.533798 
L 338.945051 177.98423 
L 339.189487 177.680678 
L 340.167228 174.97417 
L 340.411663 174.880166 
L 340.656099 174.061555 
L 340.900534 170.980992 
L 341.63384 171.02016 
L 341.878275 170.638272 
L 342.367146 168.720998 
L 342.611581 168.769958 
L 343.344887 168.668122 
L 343.833758 165.593434 
L 344.078193 165.667853 
L 344.322628 166.829184 
L 345.055934 165.67177 
L 345.30037 164.034547 
L 345.544805 165.297715 
L 345.78924 165.687437 
L 346.033676 165.519014 
L 346.766982 164.220595 
L 347.011417 164.210803 
L 347.255852 164.962829 
L 347.500287 163.264896 
L 348.722464 161.04407 
L 348.966899 162.412992 
L 349.211335 161.63159 
L 349.45577 160.078579 
L 350.433511 159.504768 
L 350.677947 156.890304 
L 350.922382 156.690547 
L 351.166817 160.517261 
L 351.900123 159.461683 
L 352.144559 157.571827 
L 352.388994 157.81271 
L 352.633429 157.278067 
L 352.877864 155.591885 
L 353.61117 156.616128 
L 353.855606 162.166234 
L 354.100041 160.668058 
L 354.344476 157.648205 
L 354.588912 161.58263 
L 355.322218 158.533402 
L 355.566653 164.146176 
L 355.811088 165.660019 
L 356.055524 173.047104 
L 356.299959 176.429261 
L 357.033265 166.862477 
L 357.2777 167.634086 
L 357.522136 164.524147 
L 357.766571 167.31095 
L 358.011006 171.572429 
L 358.744312 171.32567 
L 358.988747 174.486528 
L 359.233183 175.612608 
L 359.477618 184.123814 
L 359.722053 180.97079 
L 360.455359 183.720384 
L 360.699795 183.645965 
L 360.94423 184.836672 
L 361.188665 177.96073 
L 361.433101 180.633946 
L 362.410842 184.296154 
L 362.655277 178.877261 
L 362.899713 178.005773 
L 363.144148 185.437901 
L 363.877454 188.259955 
L 364.121889 186.00192 
L 364.366324 187.23767 
L 364.61076 181.137254 
L 364.855195 180.205056 
L 365.588501 180.590861 
L 365.832936 175.577357 
L 366.077372 175.698778 
L 366.566242 175.130842 
L 367.299548 175.974912 
L 367.543984 179.47849 
L 367.788419 180.118886 
L 368.032854 183.71255 
L 368.27729 183.111322 
L 369.010595 183.540211 
L 369.255031 190.067558 
L 369.499466 192.129754 
L 369.988337 193.721933 
L 370.966078 192.64873 
L 371.210513 186.340723 
L 371.699384 182.876314 
L 372.43269 182.7216 
L 372.677125 179.472614 
L 372.921561 179.505907 
L 373.165996 179.249357 
L 373.410431 185.437901 
L 374.143737 184.1904 
L 374.388172 181.795277 
L 374.632608 184.515494 
L 374.877043 179.799667 
L 375.121478 178.039066 
L 375.854784 175.620442 
L 376.09922 175.849574 
L 376.58809 178.260365 
L 376.832526 178.246656 
L 377.565832 173.495578 
L 377.810267 174.553114 
L 378.054702 173.225318 
L 378.299138 173.50537 
L 378.543573 174.322022 
L 379.276879 173.117606 
L 379.521314 174.43561 
L 379.765749 180.622195 
L 380.25462 182.62368 
L 380.987926 182.598221 
L 381.232361 180.020966 
L 381.476797 179.703706 
L 381.721232 183.332621 
L 381.965667 184.10423 
L 382.698973 184.952218 
L 382.943409 187.985779 
L 383.187844 187.308173 
L 383.432279 188.896435 
L 383.676715 185.494694 
L 384.410021 188.563507 
L 384.654456 188.483213 
L 384.898891 182.420006 
L 385.143326 180.498816 
L 385.387762 177.676762 
L 386.365503 180.158054 
L 386.854374 177.741389 
L 387.098809 176.689728 
L 387.832115 174.271104 
L 388.07655 174.427776 
L 388.320986 173.650291 
L 388.565421 173.730586 
L 388.809856 173.548454 
L 389.543162 170.195674 
L 389.787598 170.769485 
L 390.032033 171.846605 
L 390.276468 173.697293 
L 390.520903 169.028467 
L 391.254209 170.303386 
L 391.498645 169.218432 
L 391.987515 170.491392 
L 392.231951 169.504358 
L 392.965257 171.308045 
L 393.209692 166.66272 
L 393.454127 166.815475 
L 393.698563 167.18953 
L 393.942998 165.801024 
L 394.676304 165.767731 
L 394.920739 164.896243 
L 395.165175 163.264896 
L 395.40961 164.10505 
L 395.654045 163.63895 
L 396.387351 161.970394 
L 396.631786 165.654144 
L 396.876222 163.251187 
L 397.365092 162.289613 
L 398.098398 161.792179 
L 398.342834 161.788262 
L 398.587269 162.412992 
L 398.831704 162.152525 
L 399.07614 162.254362 
L 399.809446 162.035021 
L 400.053881 160.235251 
L 400.298316 159.375514 
L 400.542752 154.85161 
L 400.787187 153.913536 
L 401.520493 154.42272 
L 401.764928 156.351744 
L 402.009363 155.311834 
L 402.253799 156.324326 
L 402.498234 159.130714 
L 403.23154 159.41664 
L 403.475975 163.217894 
L 403.720411 163.168934 
L 403.964846 159.62423 
L 404.209281 159.028877 
L 404.942587 159.399014 
L 405.187023 162.749837 
L 405.431458 159.299136 
L 405.920329 161.051904 
L 406.653634 161.373082 
L 406.89807 162.785088 
L 407.38694 154.759565 
L 407.631376 154.136794 
L 408.364682 154.448179 
L 408.609117 154.3248 
L 409.097988 152.51328 
L 409.342423 151.064064 
L 410.075729 151.052314 
L 410.320164 150.831014 
L 410.5646 152.076557 
L 410.809035 150.580339 
L 411.786776 149.755853 
L 412.275647 147.452774 
L 412.520082 147.858163 
L 413.497823 147.707366 
L 413.986694 147.268685 
L 414.231129 147.640781 
L 414.475565 147.687782 
L 415.208871 144.900979 
L 415.208871 144.900979 
" clip-path="url(#p224d79997f)" style="fill: none; stroke: #000000; stroke-width: 1.5; stroke-linecap: square"/>
   </g>
   <g id="patch_3">
    <path d="M 57.6 276.48 
L 57.6 41.472 
" style="fill: none; stroke: #000000; stroke-width: 0.8; stroke-linejoin: miter; stroke-linecap: square"/>
   </g>
   <g id="patch_4">
    <path d="M 414.72 276.48 
L 414.72 41.472 
" style="fill: none; stroke: #000000; stroke-width: 0.8; stroke-linejoin: miter; stroke-linecap: square"/>
   </g>
   <g id="patch_5">
    <path d="M 57.6 276.48 
L 414.72 276.48 
" style="fill: none; stroke: #000000; stroke-width: 0.8; stroke-linejoin: miter; stroke-linecap: square"/>
   </g>
   <g id="patch_6">
    <path d="M 57.6 41.472 
L 414.72 41.472 
" style="fill: none; stroke: #000000; stroke-width: 0.8; stroke-linejoin: miter; stroke-linecap: square"/>
   </g>
   <g id="patch_7">
    <path d="M 127.775195 57.178227 
Q 127.775195 64.030451 127.775195 70.882675 
L 128.775195 70.882675 
Q 127.775195 72.88151 126.775195 74.880346 
Q 125.775195 72.88151 124.775195 70.882675 
L 125.775195 70.882675 
Q 125.775195 64.030451 125.775195 57.178227 
L 127.775195 57.178227 
z
" style="stroke: #000000; stroke-linecap: round"/>
   </g>
   <g id="text_18">
    <!-- Peak of bull market -->
    <g transform="translate(126.775195 53.102783) scale(0.1 -0.1)">
     <defs>
      <path id="DejaVuSans-50" d="M 1259 4147 
L 1259 2394 
L 2053 2394 
Q 2494 2394 2734 2622 
Q 2975 2850 2975 3272 
Q 2975 3691 2734 3919 
Q 2494 4147 2053 4147 
L 1259 4147 
z
M 628 4666 
L 2053 4666 
Q 2838 4666 3239 4311 
Q 3641 3956 3641 3272 
Q 3641 2581 3239 2228 
Q 2838 1875 2053 1875 
L 1259 1875 
L 1259 0 
L 628 0 
L 628 4666 
z
" transform="scale(0.015625)"/>
      <path id="DejaVuSans-6b" d="M 581 4863 
L 1159 4863 
L 1159 1991 
L 2875 3500 
L 3609 3500 
L 1753 1863 
L 3688 0 
L 2938 0 
L 1159 1709 
L 1159 0 
L 581 0 
L 581 4863 
z
" transform="scale(0.015625)"/>
      <path id="DejaVuSans-20" transform="scale(0.015625)"/>
      <path id="DejaVuSans-6f" d="M 1959 3097 
Q 1497 3097 1228 2736 
Q 959 2375 959 1747 
Q 959 1119 1226 758 
Q 1494 397 1959 397 
Q 2419 397 2687 759 
Q 2956 1122 2956 1747 
Q 2956 2369 2687 2733 
Q 2419 3097 1959 3097 
z
M 1959 3584 
Q 2709 3584 3137 3096 
Q 3566 2609 3566 1747 
Q 3566 888 3137 398 
Q 2709 -91 1959 -91 
Q 1206 -91 779 398 
Q 353 888 353 1747 
Q 353 2609 779 3096 
Q 1206 3584 1959 3584 
z
" transform="scale(0.015625)"/>
      <path id="DejaVuSans-66" d="M 2375 4863 
L 2375 4384 
L 1825 4384 
Q 1516 4384 1395 4259 
Q 1275 4134 1275 3809 
L 1275 3500 
L 2222 3500 
L 2222 3053 
L 1275 3053 
L 1275 0 
L 697 0 
L 697 3053 
L 147 3053 
L 147 3500 
L 697 3500 
L 697 3744 
Q 697 4328 969 4595 
Q 1241 4863 1831 4863 
L 2375 4863 
z
" transform="scale(0.015625)"/>
      <path id="DejaVuSans-62" d="M 3116 1747 
Q 3116 2381 2855 2742 
Q 2594 3103 2138 3103 
Q 1681 3103 1420 2742 
Q 1159 2381 1159 1747 
Q 1159 1113 1420 752 
Q 1681 391 2138 391 
Q 2594 391 2855 752 
Q 3116 1113 3116 1747 
z
M 1159 2969 
Q 1341 3281 1617 3432 
Q 1894 3584 2278 3584 
Q 2916 3584 3314 3078 
Q 3713 2572 3713 1747 
Q 3713 922 3314 415 
Q 2916 -91 2278 -91 
Q 1894 -91 1617 61 
Q 1341 213 1159 525 
L 1159 0 
L 581 0 
L 581 4863 
L 1159 4863 
L 1159 2969 
z
" transform="scale(0.015625)"/>
      <path id="DejaVuSans-75" d="M 544 1381 
L 544 3500 
L 1119 3500 
L 1119 1403 
Q 1119 906 1312 657 
Q 1506 409 1894 409 
Q 2359 409 2629 706 
Q 2900 1003 2900 1516 
L 2900 3500 
L 3475 3500 
L 3475 0 
L 2900 0 
L 2900 538 
Q 2691 219 2414 64 
Q 2138 -91 1772 -91 
Q 1169 -91 856 284 
Q 544 659 544 1381 
z
M 1991 3584 
L 1991 3584 
z
" transform="scale(0.015625)"/>
      <path id="DejaVuSans-6c" d="M 603 4863 
L 1178 4863 
L 1178 0 
L 603 0 
L 603 4863 
z
" transform="scale(0.015625)"/>
      <path id="DejaVuSans-6d" d="M 3328 2828 
Q 3544 3216 3844 3400 
Q 4144 3584 4550 3584 
Q 5097 3584 5394 3201 
Q 5691 2819 5691 2113 
L 5691 0 
L 5113 0 
L 5113 2094 
Q 5113 2597 4934 2840 
Q 4756 3084 4391 3084 
Q 3944 3084 3684 2787 
Q 3425 2491 3425 1978 
L 3425 0 
L 2847 0 
L 2847 2094 
Q 2847 2600 2669 2842 
Q 2491 3084 2119 3084 
Q 1678 3084 1418 2786 
Q 1159 2488 1159 1978 
L 1159 0 
L 581 0 
L 581 3500 
L 1159 3500 
L 1159 2956 
Q 1356 3278 1631 3431 
Q 1906 3584 2284 3584 
Q 2666 3584 2933 3390 
Q 3200 3197 3328 2828 
z
" transform="scale(0.015625)"/>
      <path id="DejaVuSans-72" d="M 2631 2963 
Q 2534 3019 2420 3045 
Q 2306 3072 2169 3072 
Q 1681 3072 1420 2755 
Q 1159 2438 1159 1844 
L 1159 0 
L 581 0 
L 581 3500 
L 1159 3500 
L 1159 2956 
Q 1341 3275 1631 3429 
Q 1922 3584 2338 3584 
Q 2397 3584 2469 3576 
Q 2541 3569 2628 3553 
L 2631 2963 
z
" transform="scale(0.015625)"/>
     </defs>
     <use xlink:href="#DejaVuSans-50"/>
     <use xlink:href="#DejaVuSans-65" x="56.677734"/>
     <use xlink:href="#DejaVuSans-61" x="118.201172"/>
     <use xlink:href="#DejaVuSans-6b" x="179.480469"/>
     <use xlink:href="#DejaVuSans-20" x="237.390625"/>
     <use xlink:href="#DejaVuSans-6f" x="269.177734"/>
     <use xlink:href="#DejaVuSans-66" x="330.359375"/>
     <use xlink:href="#DejaVuSans-20" x="365.564453"/>
     <use xlink:href="#DejaVuSans-62" x="397.351562"/>
     <use xlink:href="#DejaVuSans-75" x="460.828125"/>
     <use xlink:href="#DejaVuSans-6c" x="524.207031"/>
     <use xlink:href="#DejaVuSans-6c" x="551.990234"/>
     <use xlink:href="#DejaVuSans-20" x="579.773438"/>
     <use xlink:href="#DejaVuSans-6d" x="611.560547"/>
     <use xlink:href="#DejaVuSans-61" x="708.972656"/>
     <use xlink:href="#DejaVuSans-72" x="770.251953"/>
     <use xlink:href="#DejaVuSans-6b" x="811.365234"/>
     <use xlink:href="#DejaVuSans-65" x="865.650391"/>
     <use xlink:href="#DejaVuSans-74" x="927.173828"/>
    </g>
   </g>
   <g id="patch_8">
    <path d="M 165.173799 105.284365 
Q 165.173799 112.136588 165.173799 118.988812 
L 166.173799 118.988812 
Q 165.173799 120.987648 164.173799 122.986483 
Q 163.173799 120.987648 162.173799 118.988812 
L 163.173799 118.988812 
Q 163.173799 112.136588 163.173799 105.284365 
L 165.173799 105.284365 
z
" style="stroke: #000000; stroke-linecap: round"/>
   </g>
   <g id="text_19">
    <!-- Bear Stearns Fails -->
    <g transform="translate(164.173799 101.208921) scale(0.1 -0.1)">
     <defs>
      <path id="DejaVuSans-42" d="M 1259 2228 
L 1259 519 
L 2272 519 
Q 2781 519 3026 730 
Q 3272 941 3272 1375 
Q 3272 1813 3026 2020 
Q 2781 2228 2272 2228 
L 1259 2228 
z
M 1259 4147 
L 1259 2741 
L 2194 2741 
Q 2656 2741 2882 2914 
Q 3109 3088 3109 3444 
Q 3109 3797 2882 3972 
Q 2656 4147 2194 4147 
L 1259 4147 
z
M 628 4666 
L 2241 4666 
Q 2963 4666 3353 4366 
Q 3744 4066 3744 3513 
Q 3744 3084 3544 2831 
Q 3344 2578 2956 2516 
Q 3422 2416 3680 2098 
Q 3938 1781 3938 1306 
Q 3938 681 3513 340 
Q 3088 0 2303 0 
L 628 0 
L 628 4666 
z
" transform="scale(0.015625)"/>
      <path id="DejaVuSans-53" d="M 3425 4513 
L 3425 3897 
Q 3066 4069 2747 4153 
Q 2428 4238 2131 4238 
Q 1616 4238 1336 4038 
Q 1056 3838 1056 3469 
Q 1056 3159 1242 3001 
Q 1428 2844 1947 2747 
L 2328 2669 
Q 3034 2534 3370 2195 
Q 3706 1856 3706 1288 
Q 3706 609 3251 259 
Q 2797 -91 1919 -91 
Q 1588 -91 1214 -16 
Q 841 59 441 206 
L 441 856 
Q 825 641 1194 531 
Q 1563 422 1919 422 
Q 2459 422 2753 634 
Q 3047 847 3047 1241 
Q 3047 1584 2836 1778 
Q 2625 1972 2144 2069 
L 1759 2144 
Q 1053 2284 737 2584 
Q 422 2884 422 3419 
Q 422 4038 858 4394 
Q 1294 4750 2059 4750 
Q 2388 4750 2728 4690 
Q 3069 4631 3425 4513 
z
" transform="scale(0.015625)"/>
      <path id="DejaVuSans-6e" d="M 3513 2113 
L 3513 0 
L 2938 0 
L 2938 2094 
Q 2938 2591 2744 2837 
Q 2550 3084 2163 3084 
Q 1697 3084 1428 2787 
Q 1159 2491 1159 1978 
L 1159 0 
L 581 0 
L 581 3500 
L 1159 3500 
L 1159 2956 
Q 1366 3272 1645 3428 
Q 1925 3584 2291 3584 
Q 2894 3584 3203 3211 
Q 3513 2838 3513 2113 
z
" transform="scale(0.015625)"/>
      <path id="DejaVuSans-73" d="M 2834 3397 
L 2834 2853 
Q 2591 2978 2328 3040 
Q 2066 3103 1784 3103 
Q 1356 3103 1142 2972 
Q 928 2841 928 2578 
Q 928 2378 1081 2264 
Q 1234 2150 1697 2047 
L 1894 2003 
Q 2506 1872 2764 1633 
Q 3022 1394 3022 966 
Q 3022 478 2636 193 
Q 2250 -91 1575 -91 
Q 1294 -91 989 -36 
Q 684 19 347 128 
L 347 722 
Q 666 556 975 473 
Q 1284 391 1588 391 
Q 1994 391 2212 530 
Q 2431 669 2431 922 
Q 2431 1156 2273 1281 
Q 2116 1406 1581 1522 
L 1381 1569 
Q 847 1681 609 1914 
Q 372 2147 372 2553 
Q 372 3047 722 3315 
Q 1072 3584 1716 3584 
Q 2034 3584 2315 3537 
Q 2597 3491 2834 3397 
z
" transform="scale(0.015625)"/>
      <path id="DejaVuSans-46" d="M 628 4666 
L 3309 4666 
L 3309 4134 
L 1259 4134 
L 1259 2759 
L 3109 2759 
L 3109 2228 
L 1259 2228 
L 1259 0 
L 628 0 
L 628 4666 
z
" transform="scale(0.015625)"/>
      <path id="DejaVuSans-69" d="M 603 3500 
L 1178 3500 
L 1178 0 
L 603 0 
L 603 3500 
z
M 603 4863 
L 1178 4863 
L 1178 4134 
L 603 4134 
L 603 4863 
z
" transform="scale(0.015625)"/>
     </defs>
     <use xlink:href="#DejaVuSans-42"/>
     <use xlink:href="#DejaVuSans-65" x="68.603516"/>
     <use xlink:href="#DejaVuSans-61" x="130.126953"/>
     <use xlink:href="#DejaVuSans-72" x="191.40625"/>
     <use xlink:href="#DejaVuSans-20" x="232.519531"/>
     <use xlink:href="#DejaVuSans-53" x="264.306641"/>
     <use xlink:href="#DejaVuSans-74" x="327.783203"/>
     <use xlink:href="#DejaVuSans-65" x="366.992188"/>
     <use xlink:href="#DejaVuSans-61" x="428.515625"/>
     <use xlink:href="#DejaVuSans-72" x="489.794922"/>
     <use xlink:href="#DejaVuSans-6e" x="529.158203"/>
     <use xlink:href="#DejaVuSans-73" x="592.537109"/>
     <use xlink:href="#DejaVuSans-20" x="644.636719"/>
     <use xlink:href="#DejaVuSans-46" x="676.423828"/>
     <use xlink:href="#DejaVuSans-61" x="724.818359"/>
     <use xlink:href="#DejaVuSans-69" x="786.097656"/>
     <use xlink:href="#DejaVuSans-6c" x="813.880859"/>
     <use xlink:href="#DejaVuSans-73" x="841.664062"/>
    </g>
   </g>
   <g id="patch_9">
    <path d="M 210.883203 128.015513 
Q 210.883203 134.867737 210.883203 141.719961 
L 211.883203 141.719961 
Q 210.883203 143.718797 209.883203 145.717632 
Q 208.883203 143.718797 207.883203 141.719961 
L 208.883203 141.719961 
Q 208.883203 134.867737 208.883203 128.015513 
L 210.883203 128.015513 
z
" style="stroke: #000000; stroke-linecap: round"/>
   </g>
   <g id="text_20">
    <!-- Lehman Bankruptcy -->
    <g transform="translate(209.883203 123.940069) scale(0.1 -0.1)">
     <defs>
      <path id="DejaVuSans-4c" d="M 628 4666 
L 1259 4666 
L 1259 531 
L 3531 531 
L 3531 0 
L 628 0 
L 628 4666 
z
" transform="scale(0.015625)"/>
      <path id="DejaVuSans-68" d="M 3513 2113 
L 3513 0 
L 2938 0 
L 2938 2094 
Q 2938 2591 2744 2837 
Q 2550 3084 2163 3084 
Q 1697 3084 1428 2787 
Q 1159 2491 1159 1978 
L 1159 0 
L 581 0 
L 581 4863 
L 1159 4863 
L 1159 2956 
Q 1366 3272 1645 3428 
Q 1925 3584 2291 3584 
Q 2894 3584 3203 3211 
Q 3513 2838 3513 2113 
z
" transform="scale(0.015625)"/>
      <path id="DejaVuSans-70" d="M 1159 525 
L 1159 -1331 
L 581 -1331 
L 581 3500 
L 1159 3500 
L 1159 2969 
Q 1341 3281 1617 3432 
Q 1894 3584 2278 3584 
Q 2916 3584 3314 3078 
Q 3713 2572 3713 1747 
Q 3713 922 3314 415 
Q 2916 -91 2278 -91 
Q 1894 -91 1617 61 
Q 1341 213 1159 525 
z
M 3116 1747 
Q 3116 2381 2855 2742 
Q 2594 3103 2138 3103 
Q 1681 3103 1420 2742 
Q 1159 2381 1159 1747 
Q 1159 1113 1420 752 
Q 1681 391 2138 391 
Q 2594 391 2855 752 
Q 3116 1113 3116 1747 
z
" transform="scale(0.015625)"/>
      <path id="DejaVuSans-63" d="M 3122 3366 
L 3122 2828 
Q 2878 2963 2633 3030 
Q 2388 3097 2138 3097 
Q 1578 3097 1268 2742 
Q 959 2388 959 1747 
Q 959 1106 1268 751 
Q 1578 397 2138 397 
Q 2388 397 2633 464 
Q 2878 531 3122 666 
L 3122 134 
Q 2881 22 2623 -34 
Q 2366 -91 2075 -91 
Q 1284 -91 818 406 
Q 353 903 353 1747 
Q 353 2603 823 3093 
Q 1294 3584 2113 3584 
Q 2378 3584 2631 3529 
Q 2884 3475 3122 3366 
z
" transform="scale(0.015625)"/>
      <path id="DejaVuSans-79" d="M 2059 -325 
Q 1816 -950 1584 -1140 
Q 1353 -1331 966 -1331 
L 506 -1331 
L 506 -850 
L 844 -850 
Q 1081 -850 1212 -737 
Q 1344 -625 1503 -206 
L 1606 56 
L 191 3500 
L 800 3500 
L 1894 763 
L 2988 3500 
L 3597 3500 
L 2059 -325 
z
" transform="scale(0.015625)"/>
     </defs>
     <use xlink:href="#DejaVuSans-4c"/>
     <use xlink:href="#DejaVuSans-65" x="53.962891"/>
     <use xlink:href="#DejaVuSans-68" x="115.486328"/>
     <use xlink:href="#DejaVuSans-6d" x="178.865234"/>
     <use xlink:href="#DejaVuSans-61" x="276.277344"/>
     <use xlink:href="#DejaVuSans-6e" x="337.556641"/>
     <use xlink:href="#DejaVuSans-20" x="400.935547"/>
     <use xlink:href="#DejaVuSans-42" x="432.722656"/>
     <use xlink:href="#DejaVuSans-61" x="501.326172"/>
     <use xlink:href="#DejaVuSans-6e" x="562.605469"/>
     <use xlink:href="#DejaVuSans-6b" x="625.984375"/>
     <use xlink:href="#DejaVuSans-72" x="683.894531"/>
     <use xlink:href="#DejaVuSans-75" x="725.007812"/>
     <use xlink:href="#DejaVuSans-70" x="788.386719"/>
     <use xlink:href="#DejaVuSans-74" x="851.863281"/>
     <use xlink:href="#DejaVuSans-63" x="891.072266"/>
     <use xlink:href="#DejaVuSans-79" x="946.052734"/>
    </g>
   </g>
   <g id="patch_10">
    <path d="M 127.775195 57.178227 
Q 127.775195 64.030451 127.775195 70.882675 
L 128.775195 70.882675 
Q 127.775195 72.88151 126.775195 74.880346 
Q 125.775195 72.88151 124.775195 70.882675 
L 125.775195 70.882675 
Q 125.775195 64.030451 125.775195 57.178227 
L 127.775195 57.178227 
z
" style="stroke: #000000; stroke-linecap: round"/>
   </g>
   <g id="text_21">
    <!-- Peak of bull market -->
    <g transform="translate(126.775195 53.102783) scale(0.1 -0.1)">
     <use xlink:href="#DejaVuSans-50"/>
     <use xlink:href="#DejaVuSans-65" x="56.677734"/>
     <use xlink:href="#DejaVuSans-61" x="118.201172"/>
     <use xlink:href="#DejaVuSans-6b" x="179.480469"/>
     <use xlink:href="#DejaVuSans-20" x="237.390625"/>
     <use xlink:href="#DejaVuSans-6f" x="269.177734"/>
     <use xlink:href="#DejaVuSans-66" x="330.359375"/>
     <use xlink:href="#DejaVuSans-20" x="365.564453"/>
     <use xlink:href="#DejaVuSans-62" x="397.351562"/>
     <use xlink:href="#DejaVuSans-75" x="460.828125"/>
     <use xlink:href="#DejaVuSans-6c" x="524.207031"/>
     <use xlink:href="#DejaVuSans-6c" x="551.990234"/>
     <use xlink:href="#DejaVuSans-20" x="579.773438"/>
     <use xlink:href="#DejaVuSans-6d" x="611.560547"/>
     <use xlink:href="#DejaVuSans-61" x="708.972656"/>
     <use xlink:href="#DejaVuSans-72" x="770.251953"/>
     <use xlink:href="#DejaVuSans-6b" x="811.365234"/>
     <use xlink:href="#DejaVuSans-65" x="865.650391"/>
     <use xlink:href="#DejaVuSans-74" x="927.173828"/>
    </g>
   </g>
   <g id="patch_11">
    <path d="M 165.173799 105.284365 
Q 165.173799 112.136588 165.173799 118.988812 
L 166.173799 118.988812 
Q 165.173799 120.987648 164.173799 122.986483 
Q 163.173799 120.987648 162.173799 118.988812 
L 163.173799 118.988812 
Q 163.173799 112.136588 163.173799 105.284365 
L 165.173799 105.284365 
z
" style="stroke: #000000; stroke-linecap: round"/>
   </g>
   <g id="text_22">
    <!-- Bear Stearns Fails -->
    <g transform="translate(164.173799 101.208921) scale(0.1 -0.1)">
     <use xlink:href="#DejaVuSans-42"/>
     <use xlink:href="#DejaVuSans-65" x="68.603516"/>
     <use xlink:href="#DejaVuSans-61" x="130.126953"/>
     <use xlink:href="#DejaVuSans-72" x="191.40625"/>
     <use xlink:href="#DejaVuSans-20" x="232.519531"/>
     <use xlink:href="#DejaVuSans-53" x="264.306641"/>
     <use xlink:href="#DejaVuSans-74" x="327.783203"/>
     <use xlink:href="#DejaVuSans-65" x="366.992188"/>
     <use xlink:href="#DejaVuSans-61" x="428.515625"/>
     <use xlink:href="#DejaVuSans-72" x="489.794922"/>
     <use xlink:href="#DejaVuSans-6e" x="529.158203"/>
     <use xlink:href="#DejaVuSans-73" x="592.537109"/>
     <use xlink:href="#DejaVuSans-20" x="644.636719"/>
     <use xlink:href="#DejaVuSans-46" x="676.423828"/>
     <use xlink:href="#DejaVuSans-61" x="724.818359"/>
     <use xlink:href="#DejaVuSans-69" x="786.097656"/>
     <use xlink:href="#DejaVuSans-6c" x="813.880859"/>
     <use xlink:href="#DejaVuSans-73" x="841.664062"/>
    </g>
   </g>
   <g id="patch_12">
    <path d="M 210.883203 128.015513 
Q 210.883203 134.867737 210.883203 141.719961 
L 211.883203 141.719961 
Q 210.883203 143.718797 209.883203 145.717632 
Q 208.883203 143.718797 207.883203 141.719961 
L 208.883203 141.719961 
Q 208.883203 134.867737 208.883203 128.015513 
L 210.883203 128.015513 
z
" style="stroke: #000000; stroke-linecap: round"/>
   </g>
   <g id="text_23">
    <!-- Lehman Bankruptcy -->
    <g transform="translate(209.883203 123.940069) scale(0.1 -0.1)">
     <use xlink:href="#DejaVuSans-4c"/>
     <use xlink:href="#DejaVuSans-65" x="53.962891"/>
     <use xlink:href="#DejaVuSans-68" x="115.486328"/>
     <use xlink:href="#DejaVuSans-6d" x="178.865234"/>
     <use xlink:href="#DejaVuSans-61" x="276.277344"/>
     <use xlink:href="#DejaVuSans-6e" x="337.556641"/>
     <use xlink:href="#DejaVuSans-20" x="400.935547"/>
     <use xlink:href="#DejaVuSans-42" x="432.722656"/>
     <use xlink:href="#DejaVuSans-61" x="501.326172"/>
     <use xlink:href="#DejaVuSans-6e" x="562.605469"/>
     <use xlink:href="#DejaVuSans-6b" x="625.984375"/>
     <use xlink:href="#DejaVuSans-72" x="683.894531"/>
     <use xlink:href="#DejaVuSans-75" x="725.007812"/>
     <use xlink:href="#DejaVuSans-70" x="788.386719"/>
     <use xlink:href="#DejaVuSans-74" x="851.863281"/>
     <use xlink:href="#DejaVuSans-63" x="891.072266"/>
     <use xlink:href="#DejaVuSans-79" x="946.052734"/>
    </g>
   </g>
   <g id="patch_13">
    <path d="M 127.775195 57.178227 
Q 127.775195 64.030451 127.775195 70.882675 
L 128.775195 70.882675 
Q 127.775195 72.88151 126.775195 74.880346 
Q 125.775195 72.88151 124.775195 70.882675 
L 125.775195 70.882675 
Q 125.775195 64.030451 125.775195 57.178227 
L 127.775195 57.178227 
z
" style="stroke: #000000; stroke-linecap: round"/>
   </g>
   <g id="text_24">
    <!-- Peak of bull market -->
    <g transform="translate(126.775195 53.102783) scale(0.1 -0.1)">
     <use xlink:href="#DejaVuSans-50"/>
     <use xlink:href="#DejaVuSans-65" x="56.677734"/>
     <use xlink:href="#DejaVuSans-61" x="118.201172"/>
     <use xlink:href="#DejaVuSans-6b" x="179.480469"/>
     <use xlink:href="#DejaVuSans-20" x="237.390625"/>
     <use xlink:href="#DejaVuSans-6f" x="269.177734"/>
     <use xlink:href="#DejaVuSans-66" x="330.359375"/>
     <use xlink:href="#DejaVuSans-20" x="365.564453"/>
     <use xlink:href="#DejaVuSans-62" x="397.351562"/>
     <use xlink:href="#DejaVuSans-75" x="460.828125"/>
     <use xlink:href="#DejaVuSans-6c" x="524.207031"/>
     <use xlink:href="#DejaVuSans-6c" x="551.990234"/>
     <use xlink:href="#DejaVuSans-20" x="579.773438"/>
     <use xlink:href="#DejaVuSans-6d" x="611.560547"/>
     <use xlink:href="#DejaVuSans-61" x="708.972656"/>
     <use xlink:href="#DejaVuSans-72" x="770.251953"/>
     <use xlink:href="#DejaVuSans-6b" x="811.365234"/>
     <use xlink:href="#DejaVuSans-65" x="865.650391"/>
     <use xlink:href="#DejaVuSans-74" x="927.173828"/>
    </g>
   </g>
   <g id="patch_14">
    <path d="M 165.173799 105.284365 
Q 165.173799 112.136588 165.173799 118.988812 
L 166.173799 118.988812 
Q 165.173799 120.987648 164.173799 122.986483 
Q 163.173799 120.987648 162.173799 118.988812 
L 163.173799 118.988812 
Q 163.173799 112.136588 163.173799 105.284365 
L 165.173799 105.284365 
z
" style="stroke: #000000; stroke-linecap: round"/>
   </g>
   <g id="text_25">
    <!-- Bear Stearns Fails -->
    <g transform="translate(164.173799 101.208921) scale(0.1 -0.1)">
     <use xlink:href="#DejaVuSans-42"/>
     <use xlink:href="#DejaVuSans-65" x="68.603516"/>
     <use xlink:href="#DejaVuSans-61" x="130.126953"/>
     <use xlink:href="#DejaVuSans-72" x="191.40625"/>
     <use xlink:href="#DejaVuSans-20" x="232.519531"/>
     <use xlink:href="#DejaVuSans-53" x="264.306641"/>
     <use xlink:href="#DejaVuSans-74" x="327.783203"/>
     <use xlink:href="#DejaVuSans-65" x="366.992188"/>
     <use xlink:href="#DejaVuSans-61" x="428.515625"/>
     <use xlink:href="#DejaVuSans-72" x="489.794922"/>
     <use xlink:href="#DejaVuSans-6e" x="529.158203"/>
     <use xlink:href="#DejaVuSans-73" x="592.537109"/>
     <use xlink:href="#DejaVuSans-20" x="644.636719"/>
     <use xlink:href="#DejaVuSans-46" x="676.423828"/>
     <use xlink:href="#DejaVuSans-61" x="724.818359"/>
     <use xlink:href="#DejaVuSans-69" x="786.097656"/>
     <use xlink:href="#DejaVuSans-6c" x="813.880859"/>
     <use xlink:href="#DejaVuSans-73" x="841.664062"/>
    </g>
   </g>
   <g id="patch_15">
    <path d="M 210.883203 128.015513 
Q 210.883203 134.867737 210.883203 141.719961 
L 211.883203 141.719961 
Q 210.883203 143.718797 209.883203 145.717632 
Q 208.883203 143.718797 207.883203 141.719961 
L 208.883203 141.719961 
Q 208.883203 134.867737 208.883203 128.015513 
L 210.883203 128.015513 
z
" style="stroke: #000000; stroke-linecap: round"/>
   </g>
   <g id="text_26">
    <!-- Lehman Bankruptcy -->
    <g transform="translate(209.883203 123.940069) scale(0.1 -0.1)">
     <use xlink:href="#DejaVuSans-4c"/>
     <use xlink:href="#DejaVuSans-65" x="53.962891"/>
     <use xlink:href="#DejaVuSans-68" x="115.486328"/>
     <use xlink:href="#DejaVuSans-6d" x="178.865234"/>
     <use xlink:href="#DejaVuSans-61" x="276.277344"/>
     <use xlink:href="#DejaVuSans-6e" x="337.556641"/>
     <use xlink:href="#DejaVuSans-20" x="400.935547"/>
     <use xlink:href="#DejaVuSans-42" x="432.722656"/>
     <use xlink:href="#DejaVuSans-61" x="501.326172"/>
     <use xlink:href="#DejaVuSans-6e" x="562.605469"/>
     <use xlink:href="#DejaVuSans-6b" x="625.984375"/>
     <use xlink:href="#DejaVuSans-72" x="683.894531"/>
     <use xlink:href="#DejaVuSans-75" x="725.007812"/>
     <use xlink:href="#DejaVuSans-70" x="788.386719"/>
     <use xlink:href="#DejaVuSans-74" x="851.863281"/>
     <use xlink:href="#DejaVuSans-63" x="891.072266"/>
     <use xlink:href="#DejaVuSans-79" x="946.052734"/>
    </g>
   </g>
   <g id="text_27">
    <!-- Important dates in the 2008-2009 financial crisis -->
    <g transform="translate(89.57625 35.472) scale(0.12 -0.12)">
     <defs>
      <path id="DejaVuSans-49" d="M 628 4666 
L 1259 4666 
L 1259 0 
L 628 0 
L 628 4666 
z
" transform="scale(0.015625)"/>
      <path id="DejaVuSans-64" d="M 2906 2969 
L 2906 4863 
L 3481 4863 
L 3481 0 
L 2906 0 
L 2906 525 
Q 2725 213 2448 61 
Q 2172 -91 1784 -91 
Q 1150 -91 751 415 
Q 353 922 353 1747 
Q 353 2572 751 3078 
Q 1150 3584 1784 3584 
Q 2172 3584 2448 3432 
Q 2725 3281 2906 2969 
z
M 947 1747 
Q 947 1113 1208 752 
Q 1469 391 1925 391 
Q 2381 391 2643 752 
Q 2906 1113 2906 1747 
Q 2906 2381 2643 2742 
Q 2381 3103 1925 3103 
Q 1469 3103 1208 2742 
Q 947 2381 947 1747 
z
" transform="scale(0.015625)"/>
     </defs>
     <use xlink:href="#DejaVuSans-49"/>
     <use xlink:href="#DejaVuSans-6d" x="29.492188"/>
     <use xlink:href="#DejaVuSans-70" x="126.904297"/>
     <use xlink:href="#DejaVuSans-6f" x="190.380859"/>
     <use xlink:href="#DejaVuSans-72" x="251.5625"/>
     <use xlink:href="#DejaVuSans-74" x="292.675781"/>
     <use xlink:href="#DejaVuSans-61" x="331.884766"/>
     <use xlink:href="#DejaVuSans-6e" x="393.164062"/>
     <use xlink:href="#DejaVuSans-74" x="456.542969"/>
     <use xlink:href="#DejaVuSans-20" x="495.751953"/>
     <use xlink:href="#DejaVuSans-64" x="527.539062"/>
     <use xlink:href="#DejaVuSans-61" x="591.015625"/>
     <use xlink:href="#DejaVuSans-74" x="652.294922"/>
     <use xlink:href="#DejaVuSans-65" x="691.503906"/>
     <use xlink:href="#DejaVuSans-73" x="753.027344"/>
     <use xlink:href="#DejaVuSans-20" x="805.126953"/>
     <use xlink:href="#DejaVuSans-69" x="836.914062"/>
     <use xlink:href="#DejaVuSans-6e" x="864.697266"/>
     <use xlink:href="#DejaVuSans-20" x="928.076172"/>
     <use xlink:href="#DejaVuSans-74" x="959.863281"/>
     <use xlink:href="#DejaVuSans-68" x="999.072266"/>
     <use xlink:href="#DejaVuSans-65" x="1062.451172"/>
     <use xlink:href="#DejaVuSans-20" x="1123.974609"/>
     <use xlink:href="#DejaVuSans-32" x="1155.761719"/>
     <use xlink:href="#DejaVuSans-30" x="1219.384766"/>
     <use xlink:href="#DejaVuSans-30" x="1283.007812"/>
     <use xlink:href="#DejaVuSans-38" x="1346.630859"/>
     <use xlink:href="#DejaVuSans-2d" x="1410.253906"/>
     <use xlink:href="#DejaVuSans-32" x="1446.337891"/>
     <use xlink:href="#DejaVuSans-30" x="1509.960938"/>
     <use xlink:href="#DejaVuSans-30" x="1573.583984"/>
     <use xlink:href="#DejaVuSans-39" x="1637.207031"/>
     <use xlink:href="#DejaVuSans-20" x="1700.830078"/>
     <use xlink:href="#DejaVuSans-66" x="1732.617188"/>
     <use xlink:href="#DejaVuSans-69" x="1767.822266"/>
     <use xlink:href="#DejaVuSans-6e" x="1795.605469"/>
     <use xlink:href="#DejaVuSans-61" x="1858.984375"/>
     <use xlink:href="#DejaVuSans-6e" x="1920.263672"/>
     <use xlink:href="#DejaVuSans-63" x="1983.642578"/>
     <use xlink:href="#DejaVuSans-69" x="2038.623047"/>
     <use xlink:href="#DejaVuSans-61" x="2066.40625"/>
     <use xlink:href="#DejaVuSans-6c" x="2127.685547"/>
     <use xlink:href="#DejaVuSans-20" x="2155.46875"/>
     <use xlink:href="#DejaVuSans-63" x="2187.255859"/>
     <use xlink:href="#DejaVuSans-72" x="2242.236328"/>
     <use xlink:href="#DejaVuSans-69" x="2283.349609"/>
     <use xlink:href="#DejaVuSans-73" x="2311.132812"/>
     <use xlink:href="#DejaVuSans-69" x="2363.232422"/>
     <use xlink:href="#DejaVuSans-73" x="2391.015625"/>
    </g>
   </g>
  </g>
 </g>
 <defs>
  <clipPath id="p224d79997f">
   <rect x="57.6" y="41.472" width="357.12" height="235.008"/>
  </clipPath>
 </defs>
</svg>
